P3 4 4 255 0 0 0 0 0 0 0 0 0 255 0 255 0 85 42 0 127 63 0 0 0 0 0 0 0 85 42 0 127 63 0 255 127 0 0 0 85 0 85 0 0 0 0 0 0 0 0 0